<?xml version="1.0" encoding="UTF-8"?><svg id="Lager_1" xmlns="http://www.w3.org/2000/svg" xmlns:xlink="http://www.w3.org/1999/xlink" viewBox="113 105 512 512"><defs><style>.cls-1{fill:#0000;}.cls-1,.cls-2{stroke-width:0px;}.cls-2{fill:#fff;filter:url(#drop-shadow-1);}</style><filter id="drop-shadow-1" filterUnits="userSpaceOnUse"><feOffset dx="0" dy="8"/><feGaussianBlur result="blur" stdDeviation="64"/><feFlood flood-color="#00404e" flood-opacity=".64"/><feComposite in2="blur" operator="in"/><feComposite in="SourceGraphic"/></filter></defs><rect class="cls-1" x="113" y="105" width="512" height="512" rx="120" ry="120"/><path class="cls-2" d="m369.37,537.25h-.74c-7.52,0-15.09-.48-22.51-1.43-1.32-46.44-2.66-93.55-3.08-108.27l-.13-4.51c-.1-3.65.29-6.98,1.19-10.17,1.06-3.73,2.86-7.3,5.36-10.61,1.47-1.95,2.89-3.83,4.21-5.58l1.98-2.62c2.57-3.4,4.6-6.09,5.6-7.43.6-.8,2.71-3.78,4.48-8.54,2.05-5.52,2.89-11.32,2.49-17.24-.22-3.3-.76-11.13-1.45-21.05l-.02-.3h0c-2.26-32.52-6.03-86.94-6.03-91.23,0-2.8-.58-5.17-1.69-6.87-1.13-1.73-2.73-2.65-4.63-2.65-1.21,0-2.24.43-3.06,1.28-.82.85-1.42,2.1-1.8,3.73-.36,1.55-.5,3.39-.42,5.47.08,2.08.5,13.3,1.03,27.25.69,18.32,2.31,61.31,2.45,64.94.05,1.24.06,2.67-.17,3.95-.24,1.3-.71,2.29-1.44,3.05-1.29,1.34-3.45,1.99-6.6,1.99-3.86,0-6.38-.39-7.93-1.24-1.42-.77-2.05-1.93-2.05-3.74v-96.63c0-1.17-.25-2.65-.68-4.07-.62-2.3-1.69-4.07-2.99-4.96-.06-.04-.12-.08-.18-.12-.05-.03-.1-.06-.16-.09-.52-.31-1.03-.46-1.55-.46-.01,0-.03,0-.04,0-.01,0-.03,0-.04,0s-.03,0-.04,0c-.01,0-.02,0-.04,0-.52,0-1.03.15-1.55.46-.06.03-.11.06-.16.09-.06.04-.12.08-.18.12-1.31.9-2.37,2.66-2.99,4.96-.43,1.41-.68,2.9-.68,4.07v96.63c0,1.81-.63,2.96-2.05,3.74-1.55.84-4.06,1.24-7.93,1.24-3.16,0-5.32-.65-6.6-1.99-.73-.76-1.2-1.76-1.44-3.05-.24-1.28-.22-2.72-.17-3.95.09-2.48.92-24.32,1.71-45.44l.28-7.4c.72-19.12,1.38-36.69,1.48-39.35.16-4.28-.62-7.55-2.21-9.2-.82-.85-1.85-1.28-3.06-1.28-1.9,0-3.5.91-4.63,2.65-1.11,1.7-1.69,4.08-1.69,6.87,0,4.29-3.78,58.83-6.04,91.42h0c-.66,9.54-1.23,17.78-1.46,21.16-.39,5.92.44,11.72,2.49,17.24,1.77,4.75,3.87,7.73,4.48,8.54.41.55,1,1.32,1.72,2.28l1.6,2.12.23.3c2.22,2.94,5.11,6.78,8.24,10.92,2.5,3.31,4.3,6.88,5.36,10.61.91,3.19,1.3,6.52,1.19,10.17-.1,3.59-1.62,57.18-2.98,104.77-17.11-5.86-33.18-14.32-47.76-25.14-14.41-10.7-27.07-23.49-37.63-38.01-10.68-14.7-18.98-30.86-24.66-48.05-5.87-17.77-8.85-36.35-8.85-55.24v-.74c0-11.93,1.2-23.86,3.57-35.45,2.31-11.29,5.76-22.4,10.25-33.01,4.41-10.42,9.86-20.47,16.22-29.88,6.29-9.31,13.52-18.07,21.48-26.03s16.72-15.18,26.03-21.48c9.4-6.35,19.45-11.81,29.88-16.22,10.61-4.49,21.72-7.94,33.01-10.25,11.59-2.37,23.51-3.57,35.45-3.57h.74c11.93,0,23.86,1.2,35.45,3.57,11.29,2.31,22.4,5.76,33.01,10.25,10.42,4.41,20.47,9.86,29.88,16.22,9.31,6.29,18.07,13.52,26.03,21.48,7.96,7.96,15.18,16.72,21.48,26.03,6.35,9.4,11.81,19.45,16.22,29.88,4.49,10.61,7.94,21.72,10.25,33.01,2.37,11.59,3.57,23.51,3.57,35.45v.74c0,34.97-10.24,68.74-29.6,97.69-9.34,13.95-20.61,26.5-33.5,37.28-12.98,10.86-27.4,19.76-42.86,26.47,0-95.63.26-230.1.35-274.29v-.14s0-.35,0-.35c.02-9.69.03-15.54.03-16.45,0-1.63-.31-2.98-.91-3.92-.6-.95-1.48-1.45-2.54-1.45-1.46,0-3.25.94-5.16,2.73-2.18,2.04-4.46,5.08-6.79,9.06-2.64,4.5-5.29,10.12-7.86,16.69-2.9,7.39-5.71,16-8.37,25.61-7.28,26.32-12.81,52.92-16.43,79.06-3.07,22.09-4.69,43.52-4.69,61.96,0,5.4,1.14,9.69,3.47,13.11,2.07,3.03,4.83,5.06,7.49,7.02,4.94,3.63,9.6,7.06,9.6,16.29,0,2.96-1.15,36.13-2.53,75.91-11.64,2.39-23.61,3.6-35.59,3.6Z"/></svg>